#!OML:ASF H:\Dans Jumps\Project 1\Capture day 1\Session 1\subject.ASF
:FULLY-SPECIFIED
:DEGREES
145
root 0.0583169 17.6635 -14.2047 9.38008 -0.00822491 -1.40034
lowerback -2.69268 -0.252017 0.627707
upperback 3.4291 -0.444252 1.65407
thorax 5.06269 -0.231181 1.32855
lowerneck -11.9809 0.422284 -2.12143
upperneck 33.197 0.808634 1.08136
head 13.0779 0.23139 0.911554
rclavicle 4.17448e-015 -1.66979e-014
rhumerus -23.2703 -21.7109 -79.8408
rradius 22.4756
rwrist 34.0208
rhand -19.561 -26.6742
rfingers 7.12502
rthumb 6.76359 -56.5462
lclavicle 4.17448e-015 -1.66979e-014
lhumerus -19.9211 7.28561 86.7254
lradius 14.3279
lwrist -2.1058
lhand -25.8591 -4.27599
lfingers 7.12502
lthumb 0.681828 25.7027
rfemur -15.5456 -1.22951 18.946
rtibia 18.0167
rfoot -11.6101 -1.43608
rtoes 10.2395
lfemur -14.3937 5.54421 -16.9623
ltibia 16.3366
lfoot -9.10369 6.39367
ltoes -11.2862
146
root 0.0574963 17.662 -14.2053 9.33592 -0.0133042 -1.42572
lowerback -2.66146 -0.263119 0.636083
upperback 3.41298 -0.458989 1.66072
thorax 5.02829 -0.238268 1.32972
lowerneck -12.0343 0.428423 -2.11497
upperneck 33.0941 0.818716 1.07514
head 13.0454 0.236528 0.908659
rclavicle 2.18663e-015 3.57812e-015
rhumerus -23.2148 -21.7468 -79.8194
rradius 22.4434
rwrist 34.09
rhand -19.6201 -26.6895
rfingers 7.12502
rthumb 6.70658 -56.5633
lclavicle 2.18663e-015 3.57812e-015
lhumerus -19.8552 7.63219 86.66
lradius 14.2387
lwrist -2.40031
lhand -25.8081 -4.26388
lfingers 7.12502
lthumb 0.731088 25.7146
rfemur -15.5155 -1.24725 18.9801
rtibia 18.0402
rfoot -11.6101 -1.41844
rtoes 10.1822
lfemur -14.3974 5.49575 -16.9272
ltibia 16.4326
lfoot -9.02619 6.41105
ltoes -10.8447
147
root 0.0567527 17.6604 -14.2059 9.28432 -0.0151723 -1.45135
lowerback -2.62433 -0.276 0.644096
upperback 3.3996 -0.476061 1.66827
thorax 4.99344 -0.246556 1.33191
lowerneck -12.0776 0.431624 -2.11811
upperneck 32.9969 0.823905 1.07747
head 13.0131 0.239385 0.910071
rclavicle -2.28602e-015 -1.03368e-014
rhumerus -23.1513 -21.7837 -79.7972
rradius 22.4078
rwrist 34.1602
rhand -19.6667 -26.7113
rfingers 7.12502
rthumb 6.66155 -56.5865
lclavicle -2.28602e-015 -1.03368e-014
lhumerus -19.7859 7.95976 86.5997
lradius 14.1631
lwrist -2.6469
lhand -25.7719 -4.2554
lfingers 7.12502
lthumb 0.766017 25.723
rfemur -15.477 -1.25684 19.0141
rtibia 18.0648
rfoot -11.6101 -1.41489
rtoes 10.1127
lfemur -14.3912 5.4525 -16.8918
ltibia 16.5262
lfoot -8.95962 6.4218
ltoes -10.4058
148
root 0.0559789 17.6588 -14.2065 9.22721 -0.0150565 -1.47011
lowerback -2.5862 -0.29007 0.643278
upperback 3.38909 -0.494274 1.67513
thorax 4.96113 -0.255732 1.33828
lowerneck -12.1149 0.43201 -2.12922
upperneck 32.9072 0.82492 1.08591
head 12.9829 0.24016 0.9147
rclavicle -1.98785e-015 1.98785e-015
rhumerus -23.0826 -21.8254 -79.772
rradius 22.3714
rwrist 34.2379
rhand -19.698 -26.7334
rfingers 7.12502
rthumb 6.63132 -56.6096
lclavicle -1.98785e-015 1.98785e-015
lhumerus -19.7109 8.25487 86.5481
lradius 14.1019
lwrist -2.84008
lhand -25.7507 -4.24827
lfingers 7.12502
lthumb 0.78649 25.73
rfemur -15.4333 -1.25715 19.0403
rtibia 18.0944
rfoot -11.6127 -1.42584
rtoes 10.0441
lfemur -14.3732 5.41422 -16.8633
ltibia 16.611
lfoot -8.90303 6.42349
ltoes -9.97377
149
root 0.0550697 17.6572 -14.207 9.16752 -0.0134002 -1.4813
lowerback -2.54917 -0.304428 0.631894
upperback 3.37914 -0.512349 1.68133
thorax 4.93011 -0.265218 1.34994
lowerneck -12.1447 0.430403 -2.14763
upperneck 32.8254 0.822598 1.10103
head 12.9545 0.239389 0.922758
rclavicle 3.77691e-015 -5.96354e-015
rhumerus -23.0146 -21.8697 -79.7419
rradius 22.3382
rwrist 34.3192
rhand -19.7156 -26.7556
rfingers 7.12502
rthumb 6.6144 -56.6323
lclavicle 3.77691e-015 -5.96354e-015
lhumerus -19.6337 8.5446 86.4986
lradius 14.0574
lwrist -3.01507
lhand -25.7498 -4.26628
lfingers 7.12502
lthumb 0.787369 25.712
rfemur -15.3897 -1.24954 19.0581
rtibia 18.1328
rfoot -11.6201 -1.44915
rtoes 9.97451
lfemur -14.3448 5.3879 -16.8429
ltibia 16.6829
lfoot -8.85497 6.40867
ltoes -9.55408
150
root 0.0540754 17.6555 -14.2072 9.10882 -0.00910486 -1.48155
lowerback -2.5186 -0.31874 0.608416
upperback 3.36913 -0.529772 1.68489
thorax 4.9028 -0.274766 1.36569
lowerneck -12.1703 0.425932 -2.16734
upperneck 32.7543 0.816366 1.11634
head 12.9298 0.236693 0.930636
rclavicle -7.7526e-015 1.98785e-014
rhumerus -22.949 -21.9172 -79.7077
rradius 22.3091
rwrist 34.4008
rhand -19.7332 -26.7621
rfingers 7.12502
rthumb 6.59738 -56.6393
lclavicle -7.7526e-015 1.98785e-014
lhumerus -19.5524 8.81632 86.4525
lradius 14.0254
lwrist -3.17302
lhand -25.7535 -4.31579
lfingers 7.12502
lthumb 0.783843 25.6625
rfemur -15.3504 -1.24132 19.064
rtibia 18.1818
rfoot -11.6359 -1.47703
rtoes 9.91591
lfemur -14.3099 5.3731 -16.8349
ltibia 16.7407
lfoot -8.81209 6.37732
ltoes -9.14627
151
root 0.0530066 17.6539 -14.2071 9.05267 -9.98282e-005 -1.47286
lowerback -2.49635 -0.33327 0.57624
upperback 3.35818 -0.547088 1.68585
thorax 4.87933 -0.284519 1.38362
lowerneck -12.1974 0.419736 -2.18158
upperneck 32.6997 0.808335 1.12557
head 12.9125 0.232969 0.935128
rclavicle 5.06901e-015 -1.94809e-014
rhumerus -22.8901 -21.96 -79.6716
rradius 22.2909
rwrist 34.4712
rhand -19.7496 -26.7524
rfingers 7.12502
rthumb 6.58157 -56.6301
lclavicle 5.06901e-015 -1.94809e-014
lhumerus -19.4664 9.06448 86.4107
lradius 14.004
lwrist -3.31561
lhand -25.7567 -4.36875
lfingers 7.12502
lthumb 0.780717 25.6096
rfemur -15.3164 -1.23792 19.0602
rtibia 18.2407
rfoot -11.6593 -1.50419
rtoes 9.86004
lfemur -14.2715 5.3702 -16.8372
ltibia 16.7866
lfoot -8.77511 6.32625
ltoes -8.7582
152
root 0.051979 17.6522 -14.2066 8.9998 0.0122138 -1.45909
lowerback -2.48446 -0.346823 0.541847
upperback 3.34535 -0.563019 1.68396
thorax 4.85977 -0.293595 1.39991
lowerneck -12.2144 0.41146 -2.19111
upperneck 32.6523 0.797077 1.13109
head 12.8963 0.227882 0.936906
rclavicle 1.98785e-016 -5.1684e-015
rhumerus -22.8406 -21.9964 -79.6336
rradius 22.2837
rwrist 34.5266
rhand -19.7585 -26.7362
rfingers 7.12502
rthumb 6.573 -56.6142
lclavicle 1.98785e-016 -5.1684e-015
lhumerus -19.3816 9.27815 86.3737
lradius 13.9971
lwrist -3.4356
lhand -25.7474 -4.41251
lfingers 7.12502
lthumb 0.789675 25.5658
rfemur -15.2881 -1.24341 19.0508
rtibia 18.3074
rfoot -11.6899 -1.52255
rtoes 9.81794
lfemur -14.232 5.37638 -16.8459
ltibia 16.8244
lfoot -8.74501 6.26367
ltoes -8.40059
